<mxfile host="app.diagrams.net" agent="Mozilla/5.0 (X11; Ubuntu; Linux x86_64; rv:132.0) Gecko/20100101 Firefox/132.0" version="24.8.8">
  <diagram name="Page-1" id="C_zgaiXQPzAGpxrx-isZ">
    <mxGraphModel dx="1368" dy="1890" grid="1" gridSize="10" guides="1" tooltips="1" connect="1" arrows="1" fold="1" page="1" pageScale="1" pageWidth="850" pageHeight="1100" math="0" shadow="0">
      <root>
        <mxCell id="0" />
        <mxCell id="1" parent="0" />
        <mxCell id="_65BAjc6OIqn6Z8mEQ-Z-3" value="" style="ellipse;whiteSpace=wrap;html=1;rotation=90;" parent="1" vertex="1">
          <mxGeometry x="150" y="-170" width="120" height="40" as="geometry" />
        </mxCell>
        <mxCell id="_65BAjc6OIqn6Z8mEQ-Z-4" value="&lt;b&gt;&lt;font style=&quot;font-size: 14px;&quot;&gt;Lens&lt;/font&gt;&lt;/b&gt;" style="text;html=1;align=center;verticalAlign=middle;whiteSpace=wrap;rounded=0;" parent="1" vertex="1">
          <mxGeometry x="200" y="-240" width="60" height="30" as="geometry" />
        </mxCell>
        <mxCell id="_65BAjc6OIqn6Z8mEQ-Z-5" value="" style="endArrow=none;dashed=1;html=1;rounded=0;" parent="1" edge="1">
          <mxGeometry width="50" height="50" relative="1" as="geometry">
            <mxPoint x="210" y="-40" as="sourcePoint" />
            <mxPoint x="210" y="-260" as="targetPoint" />
          </mxGeometry>
        </mxCell>
        <mxCell id="_65BAjc6OIqn6Z8mEQ-Z-7" value="" style="rounded=0;whiteSpace=wrap;html=1;" parent="1" vertex="1">
          <mxGeometry x="80" y="-180" width="10" height="60" as="geometry" />
        </mxCell>
        <mxCell id="_65BAjc6OIqn6Z8mEQ-Z-8" value="" style="rounded=0;whiteSpace=wrap;html=1;rotation=90;" parent="1" vertex="1">
          <mxGeometry x="430" y="-160" width="145" height="20" as="geometry" />
        </mxCell>
        <mxCell id="_65BAjc6OIqn6Z8mEQ-Z-10" value="" style="endArrow=classic;startArrow=classic;html=1;rounded=0;" parent="1" edge="1">
          <mxGeometry width="50" height="50" relative="1" as="geometry">
            <mxPoint x="530" y="-77" as="sourcePoint" />
            <mxPoint x="530" y="-223" as="targetPoint" />
          </mxGeometry>
        </mxCell>
        <mxCell id="_65BAjc6OIqn6Z8mEQ-Z-26" value="&lt;font style=&quot;font-size: 14px;&quot;&gt;&lt;b&gt;W&lt;br&gt;&lt;/b&gt;&lt;/font&gt;" style="edgeLabel;html=1;align=center;verticalAlign=middle;resizable=0;points=[];" parent="_65BAjc6OIqn6Z8mEQ-Z-10" vertex="1" connectable="0">
          <mxGeometry y="-2" relative="1" as="geometry">
            <mxPoint as="offset" />
          </mxGeometry>
        </mxCell>
        <mxCell id="SH7PLvU-9gq8zQL0foui-4" value="&amp;nbsp;&lt;b&gt;&lt;font style=&quot;font-size: 14px;&quot;&gt;W or H&lt;br&gt;&lt;/font&gt;&lt;/b&gt;" style="edgeLabel;html=1;align=center;verticalAlign=middle;resizable=0;points=[];" vertex="1" connectable="0" parent="_65BAjc6OIqn6Z8mEQ-Z-10">
          <mxGeometry x="-0.0137" y="2" relative="1" as="geometry">
            <mxPoint x="12" as="offset" />
          </mxGeometry>
        </mxCell>
        <mxCell id="_65BAjc6OIqn6Z8mEQ-Z-12" value="" style="endArrow=none;dashed=1;html=1;rounded=0;strokeWidth=2;exitX=1;exitY=1;exitDx=0;exitDy=0;entryX=0;entryY=1;entryDx=0;entryDy=0;" parent="1" source="_65BAjc6OIqn6Z8mEQ-Z-7" target="_65BAjc6OIqn6Z8mEQ-Z-8" edge="1">
          <mxGeometry width="50" height="50" relative="1" as="geometry">
            <mxPoint x="100" y="-50" as="sourcePoint" />
            <mxPoint x="520" y="-230" as="targetPoint" />
          </mxGeometry>
        </mxCell>
        <mxCell id="_65BAjc6OIqn6Z8mEQ-Z-14" value="" style="endArrow=none;dashed=1;html=1;rounded=0;strokeWidth=2;exitX=1;exitY=1;exitDx=0;exitDy=0;entryX=1;entryY=1;entryDx=0;entryDy=0;" parent="1" target="_65BAjc6OIqn6Z8mEQ-Z-8" edge="1">
          <mxGeometry width="50" height="50" relative="1" as="geometry">
            <mxPoint x="90" y="-180" as="sourcePoint" />
            <mxPoint x="530" y="-70" as="targetPoint" />
          </mxGeometry>
        </mxCell>
        <mxCell id="_65BAjc6OIqn6Z8mEQ-Z-15" value="" style="endArrow=classic;startArrow=classic;html=1;rounded=0;" parent="1" edge="1">
          <mxGeometry width="50" height="50" relative="1" as="geometry">
            <mxPoint x="210" y="-60" as="sourcePoint" />
            <mxPoint x="500" y="-60" as="targetPoint" />
          </mxGeometry>
        </mxCell>
        <mxCell id="_65BAjc6OIqn6Z8mEQ-Z-23" value="&lt;font style=&quot;font-size: 14px;&quot;&gt;&lt;b&gt;&amp;nbsp;D &lt;br&gt;&lt;/b&gt;&lt;/font&gt;" style="edgeLabel;html=1;align=center;verticalAlign=middle;resizable=0;points=[];" parent="_65BAjc6OIqn6Z8mEQ-Z-15" vertex="1" connectable="0">
          <mxGeometry x="0.0069" relative="1" as="geometry">
            <mxPoint as="offset" />
          </mxGeometry>
        </mxCell>
        <mxCell id="_65BAjc6OIqn6Z8mEQ-Z-16" value="" style="endArrow=none;html=1;rounded=0;" parent="1" edge="1">
          <mxGeometry width="50" height="50" relative="1" as="geometry">
            <mxPoint x="503" y="-30" as="sourcePoint" />
            <mxPoint x="503" y="-260" as="targetPoint" />
          </mxGeometry>
        </mxCell>
        <mxCell id="_65BAjc6OIqn6Z8mEQ-Z-17" value="" style="endArrow=classic;startArrow=classic;html=1;rounded=0;" parent="1" edge="1">
          <mxGeometry width="50" height="50" relative="1" as="geometry">
            <mxPoint x="85" y="-60" as="sourcePoint" />
            <mxPoint x="210" y="-60" as="targetPoint" />
          </mxGeometry>
        </mxCell>
        <mxCell id="_65BAjc6OIqn6Z8mEQ-Z-27" value="&lt;font style=&quot;font-size: 14px;&quot;&gt;&lt;b&gt;&amp;nbsp;F &lt;br&gt;&lt;/b&gt;&lt;/font&gt;" style="edgeLabel;html=1;align=center;verticalAlign=middle;resizable=0;points=[];" parent="_65BAjc6OIqn6Z8mEQ-Z-17" vertex="1" connectable="0">
          <mxGeometry x="0.072" y="2" relative="1" as="geometry">
            <mxPoint as="offset" />
          </mxGeometry>
        </mxCell>
        <mxCell id="_65BAjc6OIqn6Z8mEQ-Z-28" value="" style="endArrow=classic;startArrow=classic;html=1;rounded=0;" parent="1" edge="1">
          <mxGeometry width="50" height="50" relative="1" as="geometry">
            <mxPoint x="60" y="-120" as="sourcePoint" />
            <mxPoint x="60" y="-180" as="targetPoint" />
          </mxGeometry>
        </mxCell>
        <mxCell id="_65BAjc6OIqn6Z8mEQ-Z-29" value="&lt;font style=&quot;font-size: 14px;&quot;&gt;&lt;b&gt;P&lt;/b&gt;&lt;/font&gt;" style="edgeLabel;html=1;align=center;verticalAlign=middle;resizable=0;points=[];" parent="_65BAjc6OIqn6Z8mEQ-Z-28" vertex="1" connectable="0">
          <mxGeometry x="0.0667" y="2" relative="1" as="geometry">
            <mxPoint as="offset" />
          </mxGeometry>
        </mxCell>
        <mxCell id="_65BAjc6OIqn6Z8mEQ-Z-30" value="" style="endArrow=none;html=1;rounded=0;" parent="1" edge="1">
          <mxGeometry width="50" height="50" relative="1" as="geometry">
            <mxPoint x="85" y="-100" as="sourcePoint" />
            <mxPoint x="85" y="-200" as="targetPoint" />
          </mxGeometry>
        </mxCell>
        <mxCell id="_65BAjc6OIqn6Z8mEQ-Z-31" value="&lt;b&gt;&lt;font style=&quot;font-size: 14px;&quot;&gt;Projection Field&lt;br&gt;&lt;/font&gt;&lt;/b&gt;" style="text;html=1;align=center;verticalAlign=middle;whiteSpace=wrap;rounded=0;" parent="1" vertex="1">
          <mxGeometry x="57" y="-232" width="60" height="30" as="geometry" />
        </mxCell>
        <mxCell id="_65BAjc6OIqn6Z8mEQ-Z-32" value="&lt;font style=&quot;font-size: 14px;&quot;&gt;&lt;b&gt;Target&lt;/b&gt;&lt;/font&gt;" style="text;html=1;align=center;verticalAlign=middle;whiteSpace=wrap;rounded=0;" parent="1" vertex="1">
          <mxGeometry x="430" y="-190" width="60" height="30" as="geometry" />
        </mxCell>
        <mxCell id="_65BAjc6OIqn6Z8mEQ-Z-33" value="" style="endArrow=none;html=1;rounded=0;exitX=1;exitY=0.5;exitDx=0;exitDy=0;entryX=0.5;entryY=1;entryDx=0;entryDy=0;" parent="1" source="_65BAjc6OIqn6Z8mEQ-Z-7" target="_65BAjc6OIqn6Z8mEQ-Z-8" edge="1">
          <mxGeometry width="50" height="50" relative="1" as="geometry">
            <mxPoint x="170" y="-130" as="sourcePoint" />
            <mxPoint x="380" y="-150" as="targetPoint" />
          </mxGeometry>
        </mxCell>
      </root>
    </mxGraphModel>
  </diagram>
</mxfile>
